<svg width="70" height="70" viewBox="0 0 70 70" fill="none" xmlns="http://www.w3.org/2000/svg">
<g clip-path="url(#clip0_19_172)">
<path d="M70 35C70 15.67 54.33 0 35 0C15.67 0 0 15.67 0 35C0 54.33 15.67 70 35 70C54.33 70 70 54.33 70 35Z" fill="#F2F2F2"/>
<mask id="mask0_19_172" style="mask-type:luminance" maskUnits="userSpaceOnUse" x="17" y="17" width="36" height="36">
<path d="M52.5 17.5H17.5V52.5H52.5V17.5Z" fill="white"/>
</mask>
<g mask="url(#mask0_19_172)">
<path d="M51.8 35.3977C51.8 34.1568 51.6887 32.9637 51.4818 31.8181H35V38.5875H44.4181C44.0125 40.775 42.7796 42.6284 40.9262 43.8693V48.2602H46.5819C49.8909 45.2137 51.8 40.7272 51.8 35.3977Z" fill="#4285F4"/>
<path d="M35 52.5C39.725 52.5 43.6863 50.9328 46.5817 48.2602L40.9261 43.8693C39.3591 44.9193 37.3545 45.5397 35 45.5397C30.442 45.5397 26.5841 42.4613 25.2079 38.325H19.3613V42.859C22.241 48.5784 28.1591 52.5 35 52.5Z" fill="#34A853"/>
<path d="M25.2079 38.3249C24.8579 37.2749 24.6591 36.1534 24.6591 34.9999C24.6591 33.8465 24.8579 32.7249 25.2079 31.6749V27.1409H19.3613C18.1762 29.5034 17.5 32.1761 17.5 34.9999C17.5 37.8237 18.1762 40.4965 19.3613 42.859L25.2079 38.3249Z" fill="#FBBC04"/>
<path d="M35 24.4603C37.5692 24.4603 39.8761 25.3432 41.6898 27.0772L46.7091 22.0579C43.6785 19.2341 39.717 17.5 35 17.5C28.1591 17.5 22.241 21.4216 19.3613 27.1409L25.2079 31.675C26.5841 27.5387 30.442 24.4603 35 24.4603Z" fill="#E94235"/>
</g>
</g>
<defs>
<clipPath id="clip0_19_172">
<rect width="70" height="70" fill="white"/>
</clipPath>
</defs>
</svg>
